<svg width="50" height="50" viewBox="0 0 50 50" fill="none" xmlns="http://www.w3.org/2000/svg">
	<rect width="50" height="50" rx="25" fill="#006a71" />
	<path d="M12.8479 33.1682C10.8159 33.1682 9.13588 32.6962 7.80788 31.7522C6.49588 30.7922 5.78387 29.3922 5.67188 27.5522H11.3359C11.4159 28.5282 11.8479 29.0162 12.6319 29.0162C12.9199 29.0162 13.1599 28.9522 13.3519 28.8242C13.5599 28.6802 13.6639 28.4642 13.6639 28.1762C13.6639 27.7762 13.4479 27.4562 13.0159 27.2162C12.5839 26.9602 11.9119 26.6722 10.9999 26.3522C9.91188 25.9682 9.00788 25.5922 8.28788 25.2242C7.58388 24.8562 6.97588 24.3202 6.46388 23.6162C5.95187 22.9122 5.70388 22.0082 5.71988 20.9042C5.71988 19.8002 5.99988 18.8642 6.55988 18.0962C7.13588 17.3122 7.91188 16.7202 8.88788 16.3202C9.87988 15.9202 10.9919 15.7202 12.2239 15.7202C14.3039 15.7202 15.9519 16.2002 17.1679 17.1602C18.3999 18.1202 19.0479 19.4722 19.1119 21.2162H13.3759C13.3599 20.7362 13.2399 20.3922 13.0159 20.1842C12.7919 19.9762 12.5199 19.8722 12.1999 19.8722C11.9759 19.8722 11.7919 19.9522 11.6479 20.1122C11.5039 20.2562 11.4319 20.4642 11.4319 20.7362C11.4319 21.1202 11.6399 21.4402 12.0559 21.6962C12.4879 21.9362 13.1679 22.2322 14.0959 22.5842C15.1679 22.9842 16.0479 23.3682 16.7359 23.7362C17.4399 24.1042 18.0479 24.6162 18.5599 25.2722C19.0719 25.9282 19.3279 26.7522 19.3279 27.7442C19.3279 28.7842 19.0719 29.7202 18.5599 30.5522C18.0479 31.3682 17.3039 32.0082 16.3279 32.4722C15.3519 32.9362 14.1919 33.1682 12.8479 33.1682Z" fill="white" />
	<path d="M36.9199 16.0082V33.0002H31.5919V26.3762H26.5279V33.0002H21.1999V16.0082H26.5279V22.1282H31.5919V16.0082H36.9199Z" fill="white" />
	<path d="M41.2611 33.1682C40.6531 33.1682 40.1491 32.9842 39.7491 32.6162C39.3651 32.2322 39.1731 31.7602 39.1731 31.2002C39.1731 30.6402 39.3651 30.1762 39.7491 29.8082C40.1491 29.4242 40.6531 29.2322 41.2611 29.2322C41.8531 29.2322 42.3411 29.4242 42.7251 29.8082C43.1091 30.1762 43.3011 30.6402 43.3011 31.2002C43.3011 31.7602 43.1091 32.2322 42.7251 32.6162C42.3411 32.9842 41.8531 33.1682 41.2611 33.1682Z" fill="white" />
</svg>
