<svg width="300" height="300" viewBox="0 0 300 300" fill="none" xmlns="http://www.w3.org/2000/svg">
<path d="M289.16 92.2889C288.93 80.6731 286.731 69.1806 282.658 58.3C279.138 48.9577 273.622 40.4957 266.496 33.5044C259.504 26.3777 251.042 20.8621 241.7 17.3422C230.824 13.2707 219.337 11.0722 207.727 10.84C192.778 10.1556 188.018 10 150 10C111.982 10 107.222 10.1556 92.2889 10.84C80.6731 11.0704 69.1806 13.269 58.3 17.3422C48.9521 20.8601 40.4847 26.3758 33.4889 33.5044C26.3678 40.4973 20.8575 48.9591 17.3422 58.3C13.2707 69.1757 11.0722 80.6628 10.84 92.2733C10.1556 107.222 10 111.982 10 150C10 188.018 10.1556 192.778 10.84 207.711C11.0704 219.327 13.269 230.819 17.3422 241.7C20.8621 251.042 26.3777 259.504 33.5044 266.496C40.4954 273.623 48.9574 279.138 58.3 282.658C69.1757 286.729 80.6628 288.928 92.2733 289.16C107.222 289.844 111.982 290 150 290C188.018 290 192.778 289.844 207.711 289.16C219.327 288.93 230.819 286.731 241.7 282.658C251.004 279.061 259.453 273.56 266.506 266.506C273.56 259.453 279.061 251.004 282.658 241.7C286.729 230.824 288.928 219.337 289.16 207.727C289.844 192.778 290 188.018 290 150C290 111.982 289.844 107.222 289.16 92.2889ZM263.96 206.576C263.853 215.447 262.222 224.234 259.138 232.553C256.811 238.594 253.245 244.08 248.669 248.659C244.092 253.238 238.608 256.807 232.569 259.138C224.245 262.223 215.452 263.854 206.576 263.96C191.798 264.629 187.38 264.769 150 264.769C112.62 264.769 108.187 264.629 93.4244 263.96C84.5529 263.852 75.7658 262.221 67.4467 259.138C61.3595 256.897 55.8525 253.32 51.3311 248.669C46.6822 244.152 43.1049 238.65 40.8622 232.569C37.7767 224.245 36.1455 215.452 36.04 206.576C35.3711 191.798 35.2311 187.38 35.2311 150C35.2311 112.62 35.3711 108.187 36.04 93.4244C36.1476 84.5529 37.7788 75.7658 40.8622 67.4467C43.1028 61.3595 46.6802 55.8525 51.3311 51.3311C55.848 46.6822 61.3495 43.1049 67.4311 40.8622C75.7552 37.777 84.5477 36.1459 93.4244 36.04C108.202 35.3711 112.62 35.2311 150 35.2311C187.38 35.2311 191.813 35.3711 206.576 36.04C215.447 36.1476 224.234 37.7788 232.553 40.8622C238.64 43.1028 244.148 46.6802 248.669 51.3311C253.318 55.848 256.895 61.3495 259.138 67.4311C262.223 75.7552 263.854 84.5477 263.96 93.4244C264.629 108.202 264.769 112.62 264.769 150C264.769 187.38 264.629 191.813 263.96 206.576V206.576ZM150 78.1022C135.78 78.1022 121.879 82.319 110.056 90.2192C98.2322 98.1194 89.0169 109.348 83.5751 122.486C78.1333 135.624 76.7095 150.08 79.4837 164.027C82.2579 177.973 89.1055 190.784 99.1606 200.839C109.216 210.894 122.027 217.742 135.973 220.516C149.92 223.29 164.376 221.867 177.514 216.425C190.652 210.983 201.881 201.768 209.781 189.944C217.681 178.121 221.898 164.22 221.898 150C221.898 130.932 214.323 112.644 200.839 99.1606C187.356 85.6771 169.068 78.1022 150 78.1022ZM150 196.667C140.77 196.667 131.748 193.93 124.073 188.802C116.399 183.674 110.418 176.386 106.886 167.859C103.354 159.331 102.429 149.948 104.23 140.896C106.031 131.843 110.475 123.528 117.002 117.002C123.528 110.475 131.843 106.031 140.896 104.23C149.948 102.429 159.331 103.354 167.859 106.886C176.386 110.418 183.674 116.399 188.802 124.073C193.93 131.748 196.667 140.77 196.667 150C196.667 162.377 191.75 174.247 182.998 182.998C174.247 191.75 162.377 196.667 150 196.667ZM241.529 75.2711C241.529 78.5938 240.544 81.8419 238.698 84.6047C236.852 87.3674 234.228 89.5207 231.158 90.7923C228.088 92.0638 224.71 92.3965 221.451 91.7483C218.192 91.1001 215.199 89.5 212.849 87.1505C210.5 84.801 208.9 81.8075 208.252 78.5486C207.603 75.2898 207.936 71.9118 209.208 68.842C210.479 65.7722 212.633 63.1484 215.395 61.3024C218.158 59.4564 221.406 58.4711 224.729 58.4711C229.185 58.4711 233.458 60.2411 236.608 63.3917C239.759 66.5423 241.529 70.8155 241.529 75.2711V75.2711Z" fill="white"/>
</svg>
