<svg width="145" height="19" viewBox="0 0 145 19" fill="none" xmlns="http://www.w3.org/2000/svg">
	<path d="M7.84788 18.1682C5.81588 18.1682 4.13588 17.6962 2.80788 16.7522C1.49588 15.7922 0.783875 14.3922 0.671875 12.5522H6.33588C6.41588 13.5282 6.84788 14.0162 7.63188 14.0162C7.91988 14.0162 8.15988 13.9522 8.35188 13.8242C8.55988 13.6802 8.66388 13.4642 8.66388 13.1762C8.66388 12.7762 8.44788 12.4562 8.01588 12.2162C7.58388 11.9602 6.91188 11.6722 5.99988 11.3522C4.91188 10.9682 4.00788 10.5922 3.28788 10.2242C2.58388 9.85622 1.97588 9.32022 1.46388 8.61621C0.951875 7.91221 0.703875 7.00821 0.719875 5.90422C0.719875 4.80022 0.999875 3.86421 1.55988 3.09621C2.13588 2.31221 2.91188 1.72021 3.88788 1.32021C4.87988 0.920215 5.99188 0.720215 7.22388 0.720215C9.30388 0.720215 10.9519 1.20021 12.1679 2.16021C13.3999 3.12021 14.0479 4.47222 14.1119 6.21622H8.37587C8.35988 5.73622 8.23988 5.39221 8.01588 5.18421C7.79188 4.97621 7.51988 4.87221 7.19988 4.87221C6.97588 4.87221 6.79188 4.95221 6.64788 5.11222C6.50388 5.25622 6.43188 5.46422 6.43188 5.73621C6.43188 6.12021 6.63987 6.44022 7.05587 6.69622C7.48787 6.93621 8.16787 7.23221 9.09587 7.58422C10.1679 7.98422 11.0479 8.36822 11.7359 8.73622C12.4399 9.10422 13.0479 9.61622 13.5599 10.2722C14.0719 10.9282 14.3279 11.7522 14.3279 12.7442C14.3279 13.7842 14.0719 14.7202 13.5599 15.5522C13.0479 16.3682 12.3039 17.0082 11.3279 17.4722C10.3519 17.9362 9.19188 18.1682 7.84788 18.1682Z" fill="#006a71" />
	<path d="M27.0959 15.4322H21.4319L20.5919 18.0002H14.9999L21.2159 1.00822H27.3599L33.5519 18.0002H27.9359L27.0959 15.4322ZM25.7999 11.4242L24.2639 6.69622L22.7279 11.4242H25.7999Z" fill="#006a71" />
	<path d="M46.7624 1.00822V5.23222H40.0904V7.58422H44.8904V11.5922H40.0904V18.0002H34.7624V1.00822H46.7624Z" fill="#006a71" />
	<path d="M53.8951 5.25622V7.34421H59.1751V11.3522H53.8951V13.7522H59.8951V18.0002H48.5671V1.00822H59.8951V5.25622H53.8951Z" fill="#006a71" />
	<path d="M80.3331 1.24822V18.0002H76.9731V10.8722H69.7971V18.0002H66.4371V1.24822H69.7971V8.13622H76.9731V1.24822H80.3331Z" fill="#006a71" />
	<path d="M93.9122 14.8082H87.2402L86.1363 18.0002H82.6083L88.6322 1.22421H92.5443L98.5683 18.0002H95.0163L93.9122 14.8082ZM93.0003 12.1202L90.5762 5.11222L88.1523 12.1202H93.0003Z" fill="#006a71" />
	<path d="M115.868 1.24822L109.724 18.0002H105.644L99.4999 1.24822H103.1L107.708 14.5682L112.292 1.24822H115.868Z" fill="#006a71" />
	<path d="M121.242 3.96021V8.16021H126.882V10.8242H121.242V15.2642H127.602V18.0002H117.882V1.22421H127.602V3.96021H121.242Z" fill="#006a71" />
	<path d="M144.984 18.0002H141.624L134.016 6.50421V18.0002H130.656V1.22421H134.016L141.624 12.7442V1.22421H144.984V18.0002Z" fill="#006a71" />
</svg>
