<svg width="300" height="300" viewBox="0 0 300 300" fill="none" xmlns="http://www.w3.org/2000/svg">
<path d="M259.74 93.6899C259.86 96.1199 259.905 98.5799 259.905 101.01C259.905 175.86 202.95 262.14 98.805 262.14C66.81 262.14 37.065 252.765 12 236.685C26.8256 238.478 41.8592 237.331 56.2416 233.311C70.6239 229.291 84.0729 222.476 95.82 213.255C84.0063 213.032 72.5576 209.122 63.0747 202.073C53.5917 195.024 46.5486 185.188 42.93 173.94C51.4209 175.528 60.1596 175.195 68.505 172.965C55.6892 170.366 44.166 163.416 35.8882 153.293C27.6104 143.17 23.0872 130.497 23.085 117.42V116.715C30.9479 121.089 39.742 123.521 48.735 123.81C36.7331 115.809 28.2371 103.529 24.9812 89.4765C21.7253 75.4243 23.955 60.6592 31.215 48.1949C45.4318 65.6918 63.1703 80.0025 83.2781 90.1972C103.386 100.392 125.414 106.243 147.93 107.37C146.956 103.134 146.468 98.8012 146.475 94.4549C146.475 87.0215 147.939 79.6609 150.784 72.7935C153.63 65.9261 157.8 59.6865 163.057 54.4309C168.314 49.1754 174.554 45.007 181.422 42.1637C188.291 39.3204 195.652 37.858 203.085 37.8599C210.832 37.8473 218.499 39.4265 225.61 42.4997C232.721 45.5728 239.125 50.0743 244.425 55.7249C257.102 53.2154 269.26 48.5692 280.38 41.9849C276.151 55.098 267.302 66.2283 255.48 73.3049C266.704 71.9743 277.665 68.9711 288 64.3949C280.408 75.7715 270.836 85.6937 259.74 93.6899V93.6899Z" fill="white"/>
</svg>
